<svg viewBox="0 0 186 195" xmlns="http://www.w3.org/2000/svg" style="overflow:visible">
<path fill-rule="evenodd" clip-rule="evenodd" d="M131.025 149.242C109.966 161.892 75.8224 161.891 54.7634 149.242C33.704 136.592 33.704 116.083 54.7634 103.434C75.8224 90.7845 109.966 90.7844 131.025 103.434C152.084 116.084 152.084 136.592 131.025 149.242ZM140.3 163.281C114.119 178.805 71.6697 178.805 45.4881 163.281C19.3065 147.757 19.3065 122.587 45.4881 107.063C71.6697 91.5383 114.119 91.5383 140.3 107.063C166.482 122.587 166.482 147.757 140.3 163.281Z" fill="black" opacity="0.12"/>
<path d="M140.3 163.281C114.119 178.805 71.6697 178.805 45.4881 163.281C19.3065 147.757 19.3065 122.587 45.4881 107.063C71.6697 91.5382 114.119 91.5382 140.3 107.063C166.482 122.587 166.482 147.757 140.3 163.281Z" fill="#4a48d4"/>
<path d="M54.7632 149.242C75.8222 161.892 109.966 161.892 131.025 149.242C152.084 136.593 152.084 116.084 131.025 103.435C109.966 90.785 75.8222 90.7852 54.7632 103.435C33.7039 116.084 33.7039 136.593 54.7632 149.242Z" fill="#6967fb"/>
<path d="M54.7632 149.242C75.8222 161.892 109.966 161.892 131.025 149.242C152.084 136.593 152.084 116.084 131.025 103.435C109.966 90.785 75.8222 90.7852 54.7632 103.435C33.7039 116.084 33.7039 136.593 54.7632 149.242Z" fill="white" fill-opacity="0.65"/>
<path d="M140.3 163.281C114.119 178.805 71.6697 178.805 45.4881 163.281C19.3065 147.757 19.3065 122.587 45.4881 107.063C71.6697 91.5382 114.119 91.5382 140.3 107.063C166.482 122.587 166.482 147.757 140.3 163.281Z" fill="#5a58e8" transform="translate(0,-6)"/>
<path d="M61.9771 108.64C79.052 98.866 106.736 98.866 123.811 108.64C140.886 118.414 140.886 134.262 123.811 144.037C106.736 153.811 79.052 153.811 61.9771 144.037C44.9022 134.262 44.9022 118.414 61.9771 108.64Z" fill="white" transform="translate(0,-6)"/>
<path d="M104.942 122.956L102.056 120.772L89.9368 129.999L84.7426 126.155L81.8569 128.123L89.9368 134.152L104.942 122.956Z" fill="#6967fb" transform="translate(0,-6)"/>
</svg>
