<svg viewBox="0 0 17 17" xmlns="http://www.w3.org/2000/svg" fill="#000000">
<path fill-rule="evenodd" clip-rule="evenodd" d="M4.68251 2.87297C5.00079 1.40536 6.48945 0.508958 7.93546 0.914182L14.5221 2.75999C15.8941 3.14447 16.7215 4.5396 16.4008 5.9279L14.88 12.5116C14.7972 12.8703 14.4392 13.094 14.0804 13.0111C13.7217 12.9282 13.498 12.5702 13.5809 12.2115L15.1016 5.62782C15.262 4.93367 14.8483 4.2361 14.1623 4.04386L7.57568 2.19806C6.86883 1.99997 6.14114 2.43816 5.98555 3.15556C5.90752 3.51538 5.55256 3.74382 5.19273 3.66578C4.83291 3.58775 4.60447 3.23279 4.68251 2.87297Z"/>
<path fill-rule="evenodd" clip-rule="evenodd" d="M0 6.33337C0 5.2288 0.895431 4.33337 2 4.33337H10.6667C11.7712 4.33337 12.6667 5.2288 12.6667 6.33337V15C12.6667 16.1046 11.7712 17 10.6667 17H2C0.895431 17 0 16.1046 0 15V6.33337ZM2 5.66671C1.63181 5.66671 1.33333 5.96518 1.33333 6.33337V15C1.33333 15.3682 1.63181 15.6667 2 15.6667H10.6667C11.0349 15.6667 11.3333 15.3682 11.3333 15V6.33337C11.3333 5.96518 11.0349 5.66671 10.6667 5.66671H2Z"/>
<path fill-rule="evenodd" clip-rule="evenodd" d="M5.33326 13.2618L3.19519 11.1238L4.138 10.1809L5.33326 11.3762L8.19519 8.51428L9.138 9.45709L5.33326 13.2618Z"/>
</svg>
