<svg xmlns="http://www.w3.org/2000/svg" viewBox="0 0 72 52"><g clip-path="url(#pr-a)"><g opacity=".8"><mask id="pr-c" style="mask-type:alpha" maskUnits="userSpaceOnUse" x="32" y="3" width="38" height="48"><path d="M32.984 50.048V3.388l30.835 7.515-.242 18.935 5.393 9.647a1.718 1.718 0 0 1-1.113 2.512z" fill="url(#pr-b)"></path></mask><g mask="url(#pr-c)"><path opacity=".5" d="M32.984 50.048V3.388l30.835 7.52-.242 18.93 4.918 9.657a1.718 1.718 0 0 1-1.137 2.452z" fill="url(#pr-d)"></path></g></g><path d="M68.95 20.58a1.56 1.56 0 0 1-.044 1.639l-4.198 6.427a1.56 1.56 0 0 0-.076 1.58l4.311 8.214a1.562 1.562 0 0 1-1.383 2.288H50.144a1.562 1.562 0 0 1-1.383-2.288l4.34-8.273a1.56 1.56 0 0 0-.06-1.556l-3.926-6.254a1.56 1.56 0 0 1-.056-1.564l4.244-7.974c.27-.51.8-.828 1.378-.828h8.383c.556 0 1.07.297 1.35.778z" fill="url(#pr-e)"></path><path d="M59.278 11.99c-.577 0-1.107.318-1.378.827L53.646 20.8a1.56 1.56 0 0 0 .037 1.535l3.673 6.148c.27.453.294 1.013.063 1.487l-4.162 8.508a1.56 1.56 0 0 0 1.388 2.248h-4.568a1.562 1.562 0 0 1-1.4-2.255l4.236-8.552a1.56 1.56 0 0 0-.066-1.505l-3.749-6.165a1.56 1.56 0 0 1-.04-1.55L53.3 12.81c.273-.505.8-.82 1.375-.82z" fill="#e05fbc"></path><mask id="pr-f" style="mask-type:alpha" maskUnits="userSpaceOnUse" x="48" y="11" width="12" height="30"><path d="M59.275 11.99c-.575 0-1.104.316-1.376.823l-4.248 7.924a1.56 1.56 0 0 0 .037 1.543l3.947 6.566c.272.453.296 1.014.064 1.49l-3.975 8.142a1.562 1.562 0 0 0 1.403 2.248h-4.984a1.562 1.562 0 0 1-1.383-2.288l4.27-8.135a1.56 1.56 0 0 0-.043-1.526l-3.9-6.533a1.56 1.56 0 0 1-.034-1.54l4.247-7.892c.272-.506.8-.822 1.375-.822z" fill="#b78900"></path></mask><g mask="url(#pr-f)"><path fill="url(#pr-g)" d="M46.616 11.177h14.709v4.236H46.616z"></path><path fill="#ff6bd5" d="M46.616 20.896h14.709v9.307H46.616z"></path><path fill="url(#pr-h)" d="M46.616 29.829h14.709v11.68H46.616z"></path><path fill="#bf51a0" d="M46.616 29.829h14.709v4.72H46.616z"></path></g><mask id="pr-j" style="mask-type:alpha" maskUnits="userSpaceOnUse" x="47" y="10" width="24" height="32"><mask id="pr-i" maskUnits="userSpaceOnUse" x="46.878" y="9.991" width="24" height="32" fill="#000"><path fill="#fff" d="M46.878 9.991h24v32h-24z"></path><path d="M68.641 20.729a1.56 1.56 0 0 1-.058 1.573l-4.261 6.722a1.56 1.56 0 0 0-.084 1.522l3.877 7.934a1.562 1.562 0 0 1-1.403 2.248H50.989a1.562 1.562 0 0 1-1.403-2.248l3.878-7.937a1.56 1.56 0 0 0-.085-1.521l-4.258-6.72a1.56 1.56 0 0 1-.058-1.573l4.238-7.913a1.56 1.56 0 0 1 1.376-.825h8.35a1.56 1.56 0 0 1 1.376.825z"></path></mask><path d="m64.403 12.816 1.102-.59zm-15.282 9.486-1.056.669zm4.258 6.72-1.055.668zm14.736 9.458-1.123.549zm-3.793-9.456 1.055.67zm-.084 1.522 1.122-.548zm4.345-8.244-1.055-.669zm0 0-1.055-.669-4.261 6.722 1.055.67 1.055.668 4.261-6.722zm-4.345 8.244-1.123.549 3.877 7.934 1.123-.549 1.122-.548-3.877-7.934zm2.474 10.182v-1.25H50.989v2.499h15.723zM49.585 38.48l1.123.549 3.877-7.938-1.122-.548-1.123-.548-3.877 7.937zm3.793-9.458 1.056-.67-4.259-6.719-1.055.67-1.056.668 4.26 6.72zm-4.316-8.293 1.101.59 4.238-7.913-1.101-.59-1.102-.59-4.237 7.913zm5.614-8.738v1.25h8.35v-2.5h-8.35zm9.726.825-1.101.59 4.238 7.913 1.101-.59 1.101-.59-4.237-7.913zm-1.376-.825v1.25c.115 0 .22.063.275.165l1.101-.59 1.102-.59a2.81 2.81 0 0 0-2.478-1.484zm-9.726.825 1.101.59a.31.31 0 0 1 .275-.165v-2.5a2.81 2.81 0 0 0-2.478 1.485zm-4.18 9.486 1.055-.669a.31.31 0 0 1-.012-.314l-1.1-.59-1.102-.59a2.81 2.81 0 0 0 .103 2.832zm4.343 8.241 1.122.549a2.81 2.81 0 0 0-.151-2.74l-1.056.67-1.055.668a.31.31 0 0 1 .017.305zm-2.475 10.185v-1.25a.312.312 0 0 1-.28-.45l-1.123-.548-1.122-.548c-.913 1.867.447 4.045 2.525 4.045zm17.126-2.248-1.123.549a.312.312 0 0 1-.28.45v2.498c2.078 0 3.438-2.178 2.525-4.045zm-3.793-9.456-1.055-.669a2.81 2.81 0 0 0-.152 2.74l1.123-.549 1.122-.548a.31.31 0 0 1 .017-.305zm4.261-6.722 1.055.67a2.81 2.81 0 0 0 .104-2.833l-1.101.59-1.102.59a.31.31 0 0 1-.011.314z" fill="#d7a613" mask="url(#pr-i)"></path></mask><g mask="url(#pr-j)"><path d="M69.678 44.54H44.635V8.123H61.04l13.465 6.603z" fill="url(#pr-k)"></path></g></g><mask id="pr-l" style="mask-type:alpha" maskUnits="userSpaceOnUse" x="5" y="10" width="64" height="31"><path d="m64.27 30.617 2.028 4.151-24.71 5.921H5.09V10.931l52.894-.135 7.973 5.139 1.716 2.997.999 1.828a1.46 1.46 0 0 1-.049 1.482l-4.26 6.716a1.7 1.7 0 0 0-.093 1.66" fill="#d9d9d9"></path></mask><g mask="url(#pr-l)"><g clip-path="url(#pr-m)"><path d="M34.228 12.072a4.73 4.73 0 0 1 3.778 2.352l2.832 4.906h22.48c1.06 0 1.991.707 2.276 1.73l2.151 7.742a2.732 2.732 0 0 1-2.632 3.464h-4.02l-2.25-6.973-.263-.82h-2.452l.879 2.821 1.603 4.972h-7.742l-.007.004v-.004h-.003l-1.765-5.43-.768-2.363H34.41l-2.467-4.272h-6.466l-3.233 5.598 3.234 5.6h6.464l2.635-4.563h11.986l1.765 5.43H40.84l-2.833 4.908a4.73 4.73 0 0 1-3.779 2.353l-.314.01H23.507a4.73 4.73 0 0 1-4.093-2.363l-5.203-9.011a4.73 4.73 0 0 1 0-4.727l5.203-9.012a4.73 4.73 0 0 1 4.093-2.362h10.406z" fill="#456dff"></path><mask id="pr-n" style="mask-type:alpha" maskUnits="userSpaceOnUse" x="13" y="12" width="55" height="28"><path d="M34.227 12.073a4.73 4.73 0 0 1 3.778 2.353l2.831 4.904h22.48c1.062 0 1.993.708 2.277 1.73l2.152 7.743a2.733 2.733 0 0 1-2.633 3.464h-4.02l-2.249-6.974-.263-.82h-2.453l.88 2.822 1.603 4.972h-7.742l-.007.003-.001-.003h-.002l-1.766-5.43h.001l-.768-2.363H34.408l-2.466-4.272h-6.467l-3.232 5.599 3.233 5.6h6.465l2.635-4.564H46.56l1.766 5.43h-7.488l-2.834 4.909a4.73 4.73 0 0 1-3.778 2.352l-.314.011H23.506a4.73 4.73 0 0 1-4.092-2.363l-5.204-9.012a4.73 4.73 0 0 1 0-4.727l5.204-9.011a4.73 4.73 0 0 1 4.092-2.363h10.407z" fill="#f7c325"></path></mask><g mask="url(#pr-n)"><path fill="#7491ff" d="M15.134 8.826h16.987v6.484H15.134z"></path><path fill="#ff90e0" d="M12.211 25.818h16.987v3.971H12.211z"></path><path transform="matrix(1 0 0 -1 31.502 25.268)" fill="url(#pr-o)" d="M0 0h7.329v5.861H0z"></path><path transform="matrix(1 0 0 -1 58.052 33.11)" fill="url(#pr-p)" d="M0 0h7.329v10.979H0z"></path><path transform="matrix(1 0 0 -1 47.577 33.11)" fill="url(#pr-q)" d="M0 0h8.475v10.979H0z"></path><path fill="url(#pr-r)" d="M31.502 25.268h7.329v7.197h-7.329z"></path><path transform="matrix(1 0 0 -1 12.211 40.202)" fill="url(#pr-s)" d="M0 0h16.987v10.412H0z"></path></g><path d="M37.97 12.072a4.73 4.73 0 0 1 3.778 2.352l2.832 4.906h22.48c1.06 0 1.993.707 2.277 1.73l2.151 7.742a2.733 2.733 0 0 1-2.632 3.464h-4.02l-2.25-6.973-.263-.82H59.87l.879 2.821 1.603 4.972H54.61l-.007.004v-.004H54.6l-1.766-5.43-.768-2.363H38.151l-2.466-4.272h-6.467l-3.233 5.598 3.234 5.6h6.465l2.634-4.563h11.986l1.765 5.43h-7.488l-2.833 4.908a4.73 4.73 0 0 1-3.778 2.353l-.315.01H27.25a4.73 4.73 0 0 1-4.093-2.363l-5.203-9.011a4.73 4.73 0 0 1 0-4.727l5.203-9.012a4.73 4.73 0 0 1 4.093-2.362h10.406z" fill="url(#pr-t)"></path><mask id="pr-u" style="mask-type:alpha" maskUnits="userSpaceOnUse" x="17" y="12" width="55" height="28"><path d="M37.97 12.073a4.73 4.73 0 0 1 3.779 2.353l2.83 4.904h22.48c1.061 0 1.992.708 2.276 1.73l2.153 7.743a2.733 2.733 0 0 1-2.633 3.464h-4.02l-2.25-6.974-.263-.82H59.87l.879 2.822 1.603 4.972H54.61l-.007.003-.001-.003H54.6l-1.766-5.43h.002l-.768-2.363H38.15l-2.466-4.272h-6.467l-3.232 5.599 3.233 5.6h6.465l2.635-4.564h11.985l1.765 5.43h-7.486l-2.834 4.909a4.73 4.73 0 0 1-3.779 2.352l-.314.011H27.25a4.73 4.73 0 0 1-4.093-2.363l-5.203-9.012a4.73 4.73 0 0 1 0-4.727l5.203-9.011a4.73 4.73 0 0 1 4.093-2.363h10.406z" fill="#f7c325"></path></mask><g mask="url(#pr-u)"><path opacity=".4" transform="rotate(30 44.554 -1.578)" fill="url(#pr-v)" d="M44.554-1.578h23.969v49.4H44.554z"></path></g></g><path d="M28.689 12.661h10.328c1.438 0 2.765.777 3.468 2.032l2.92 5.209h16.737" stroke="#dae2ff" stroke-width="1.136"></path><path d="M55.59 19.902H45.404l-2.945-5.254a3.89 3.89 0 0 0-3.392-1.987H34.47" stroke="#fef9e9" stroke-width="1.136"></path><path d="M52.697 19.34H67.16c.682 0 1.31.373 1.638.97l3.234 5.908-2.702 6.02H52.697z" fill="url(#pr-w)"></path></g><path d="m19.427 42.234.577 2.297 2.297.577-2.297.577-.577 2.297-.577-2.297-2.297-.577 2.297-.577z" fill="url(#pr-x)"></path><path d="m6.891 14 .86 3.42 3.42.86-3.42.86-.86 3.421-.86-3.42-3.42-.86 3.42-.86z" fill="url(#pr-y)"></path><path opacity=".5" fill="#456dff" d="m3.578 30.887.968-.968-.968-.968-.968.968z"></path><path opacity=".3" fill="#f7c325" d="M14.004 10.846h1.358V9.488h-1.358z"></path><path opacity=".2" fill="#f7c325" d="M15.36 42.234h1.191v-1.191H15.36z"></path><path d="m26.096 2.286.525 2.087 2.087.525-2.087.524-.525 2.088-.524-2.088-2.088-.524 2.087-.525z" fill="url(#pr-z)"></path><defs><linearGradient id="pr-b" x1="34.743" y1="26.718" x2="53.32" y2="26.718" gradientUnits="userSpaceOnUse"><stop stop-opacity="0"></stop><stop offset="1"></stop></linearGradient><linearGradient id="pr-d" x1="32.984" y1="26.718" x2="67.219" y2="26.718" gradientUnits="userSpaceOnUse"><stop stop-color="#9d62ff" stop-opacity="0"></stop><stop offset=".68" stop-color="#9d62ff"></stop><stop offset="1" stop-color="#9d62ff"></stop></linearGradient><linearGradient id="pr-e" x1="59.393" y1="26.359" x2="67.051" y2="28.767" gradientUnits="userSpaceOnUse"><stop stop-color="#381d66"></stop><stop offset="1" stop-color="#170b29"></stop></linearGradient><linearGradient id="pr-g" x1="54.82" y1="14.358" x2="54.82" y2="11.821" gradientUnits="userSpaceOnUse"><stop stop-color="#9e2e9e"></stop><stop offset="1" stop-color="#5a2ea3"></stop></linearGradient><linearGradient id="pr-h" x1="57.007" y1="35.669" x2="57.095" y2="40.779" gradientUnits="userSpaceOnUse"><stop stop-color="#9e2e9e"></stop><stop offset="1" stop-color="#5a2ea3"></stop></linearGradient><linearGradient id="pr-k" x1="48.538" y1="47.499" x2="78.264" y2="38.554" gradientUnits="userSpaceOnUse"><stop stop-color="#fff"></stop><stop offset=".19" stop-color="#456dff"></stop><stop offset=".525" stop-color="#d2b7ff"></stop><stop offset=".765" stop-color="#f7c325"></stop><stop offset="1" stop-color="#fff"></stop></linearGradient><linearGradient id="pr-o" x1="3.664" y1="5.861" x2="3.664" y2=".452" gradientUnits="userSpaceOnUse"><stop offset=".36" stop-color="#ff8cff"></stop><stop offset="1" stop-color="#5a2ea3"></stop></linearGradient><linearGradient id="pr-p" x1="3.664" y1="2.154" x2="3.664" y2="10.979" gradientUnits="userSpaceOnUse"><stop stop-color="#456dff"></stop><stop offset="1" stop-color="#142563"></stop></linearGradient><linearGradient id="pr-q" x1="4.238" y1="2.154" x2="4.238" y2="12.936" gradientUnits="userSpaceOnUse"><stop stop-color="#874de5"></stop><stop offset="1" stop-color="#294bc6"></stop></linearGradient><linearGradient id="pr-r" x1="35.166" y1="26.68" x2="35.166" y2="32.465" gradientUnits="userSpaceOnUse"><stop stop-color="#456dff"></stop><stop offset="1" stop-color="#142563"></stop></linearGradient><linearGradient id="pr-s" x1="0" y1="20.802" x2="8.494" y2="-.962" gradientUnits="userSpaceOnUse"><stop offset=".36" stop-color="#ff8cff"></stop><stop offset="1" stop-color="#5a2ea3"></stop></linearGradient><linearGradient id="pr-t" x1="43.242" y1="13.23" x2="14.767" y2="60.001" gradientUnits="userSpaceOnUse"><stop stop-color="#abbdff"></stop><stop offset=".33" stop-color="#f7c325"></stop><stop offset=".671" stop-color="#e350e3"></stop></linearGradient><linearGradient id="pr-v" x1="56.539" y1="-1.578" x2="56.539" y2="47.822" gradientUnits="userSpaceOnUse"><stop stop-color="#fdf3d3" stop-opacity="0"></stop><stop offset="1" stop-color="#f7fad5"></stop></linearGradient><linearGradient id="pr-w" x1="67.114" y1="35.445" x2="52.772" y2="31.52" gradientUnits="userSpaceOnUse"><stop offset=".025" stop-color="#375ce3"></stop><stop offset=".24" stop-color="#874de5"></stop><stop offset=".525" stop-color="#ff6bd5" stop-opacity=".5"></stop><stop offset="1" stop-color="#ff90e0" stop-opacity="0"></stop></linearGradient><linearGradient id="pr-x" x1="19.753" y1="47.982" x2="19.176" y2="42.259" gradientUnits="userSpaceOnUse"><stop stop-color="#ffbaff"></stop><stop offset="1" stop-color="#213c9e"></stop></linearGradient><linearGradient id="pr-y" x1="6.332" y1="14" x2="7.445" y2="22.028" gradientUnits="userSpaceOnUse"><stop stop-color="#ffbaff"></stop><stop offset="1" stop-color="#f7c325"></stop></linearGradient><linearGradient id="pr-z" x1="28.509" y1="2.118" x2="23.31" y2="3.628" gradientUnits="userSpaceOnUse"><stop stop-color="#fff"></stop><stop offset=".206" stop-color="#456dff"></stop><stop offset=".525" stop-color="#d2b7ff"></stop><stop offset=".726" stop-color="#f7c325"></stop><stop offset="1" stop-color="#fff"></stop></linearGradient><clipPath id="pr-a"><path fill="#fff" d="M34.344 3.176h36.702v47.009H34.344z"></path></clipPath><clipPath id="pr-m"><path fill="#fff" d="M13.578-3.202H71.59V54.81H13.578z"></path></clipPath></defs></svg>