<svg viewBox="0 0 120 117" xmlns="http://www.w3.org/2000/svg" style="overflow:visible">
<path d="M92.961 59.1426L89.8008 56.8008H59.9688H30.2031L27.0401 59.1426C25.0982 60.5645 23.7338 62.6389 23.1983 64.9853L21.9932 70.2656C21.7896 70.9181 21.387 71.545 20.8037 72.1162L15.7061 77.1074C13.9156 78.8609 13.9158 81.0375 15.7061 82.791L20.8037 87.7832C21.387 88.3543 21.7896 88.9813 21.9932 89.6338L24.0283 96.1572C24.7542 98.4842 27.9357 100.297 31.9756 100.686L42.6758 101.715C44.1837 101.86 45.6111 102.209 46.8409 102.733L54.2774 105.903C55.9369 106.611 58.0045 106.974 59.9688 106.995V106.997C59.9792 106.997 59.9896 106.996 60 106.996C60.0106 106.996 60.0217 106.997 60.0323 106.997V106.995C61.9962 106.974 64.0634 106.611 65.7227 105.903L73.1592 102.733C74.389 102.209 75.8163 101.86 77.3242 101.715L88.0254 100.686C92.0651 100.297 95.2459 98.4841 95.9717 96.1572L98.0069 89.6338C98.2104 88.9813 98.6131 88.3543 99.1963 87.7832L104.294 82.791C106.084 81.0375 106.085 78.8609 104.294 77.1074L99.1963 72.1162C98.6131 71.545 98.2104 70.9181 98.0069 70.2656L96.8018 64.9853C96.2663 62.639 94.9026 60.5645 92.961 59.1426Z" fill="#4a48d4"/>
<path d="M89.7969 56.7994L93.1452 66.5535L101.139 74.0011L93.1452 81.4487L89.7969 91.2029L72.9008 92.9812L60 98.3281L47.0992 92.9812L30.2031 91.2029L26.8548 81.4487L18.8609 74.0011L26.8548 66.5535L30.2031 56.7994L47.0992 55.021L60 49.6742L72.9008 55.021L89.7969 56.7994Z" fill="#d0cfff" transform="translate(0,-6)"/>
<path d="M38.7868 61.9792C50.5025 55.3403 69.4975 55.3403 81.2132 61.9792C92.9289 68.6181 92.9289 79.3819 81.2132 86.0208C69.4975 92.6597 50.5025 92.6597 38.7868 86.0208C27.0711 79.3819 27.0711 68.6181 38.7868 61.9792Z" fill="white" transform="translate(0,-6)"/>
</svg>
