<svg viewBox="30 20 565 500" fill="none" xmlns="http://www.w3.org/2000/svg">
  <!-- Head shape -->
  <path fill="#3DCF56" d="M389.852844,504.888855 C364.741180,506.888824 340.090424,510.094788 315.391174,510.525787 C270.187225,511.314575 225.408157,506.256073 181.569901,494.881409 C153.585205,487.620209 128.738876,473.977173 107.136436,454.665802 C78.789856,429.325531 59.632896,398.222870 50.496487,361.353882 C47.480453,349.183014 45.460442,336.460693 45.282066,323.957733 C44.959530,301.349762 45.496872,278.649261 47.260319,256.111420 C49.645596,225.626389 54.710518,195.478943 62.481781,165.815994 C68.870003,141.432114 76.912491,117.699806 88.450317,95.248138 C98.130714,76.410889 110.093948,59.282845 127.242180,46.411530 C138.683960,37.823418 151.464066,33.213882 166.069824,32.708382 C200.711304,31.509445 229.660538,44.114994 254.825989,67.126114 C262.921051,74.528175 271.117981,81.966141 280.057953,88.267334 C301.105560,103.102409 324.053406,102.311157 344.224274,86.331413 C356.731506,76.422928 368.400635,65.448250 381.001099,55.667362 C405.371979,36.749943 433.587921,30.351248 463.774109,33.301785 C478.170929,34.708996 490.454254,42.211338 501.197266,51.933865 C518.090454,67.222351 529.397705,86.373352 538.724487,106.785057 C553.904236,140.006149 563.125671,175.095108 568.491028,211.027191 C572.288086,236.455948 574.223267,262.206726 575.953491,287.883575 C576.990295,303.269409 577.029602,318.872650 575.749939,334.230927 C573.540894,360.744019 565.396545,385.687408 551.840942,408.691772 C524.942932,454.338470 485.604584,483.516388 434.297516,496.291473 C419.816925,499.897064 404.970490,502.033295 389.852844,504.888855z" />
  <!-- Left eye - X mark -->
  <line x1="180" y1="210" x2="260" y2="290" stroke="#2E411B" stroke-width="22" stroke-linecap="round"/>
  <line x1="260" y1="210" x2="180" y2="290" stroke="#2E411B" stroke-width="22" stroke-linecap="round"/>
  <!-- Right eye - X mark -->
  <line x1="360" y1="210" x2="440" y2="290" stroke="#2E411B" stroke-width="22" stroke-linecap="round"/>
  <line x1="440" y1="210" x2="360" y2="290" stroke="#2E411B" stroke-width="22" stroke-linecap="round"/>
  <!-- Sad frown -->
  <path fill="#2E411B" d="M279.258118,352.224854 C294.773071,328.562195 328.142975,327.713837 346.264954,350.827698 C351.308990,358.641266 350.950745,364.361664 345.398376,368.225403 C340.036346,371.956543 334.385132,370.126617 329.147095,362.963013 C320.899780,351.683868 305.033020,352.192871 296.516510,364.009766 C292.138733,370.084076 286.366302,371.654602 281.158752,368.188202 C276.179077,364.873505 275.377716,358.143066 279.258118,352.224854z" />
</svg>
