<svg xmlns="http://www.w3.org/2000/svg" viewBox="0 0 2400 976" preserveAspectRatio="xMidYMid meet">
<g transform="translate(0,976) scale(0.1,-0.1)" fill="#0F172A" stroke="none">
<path d="M15847 6642 c-9 -2 -17 -9 -17 -15 -9 -407 4 -2904 15 -2952 8 -33 14 -71 15 -84 0 -44 69 -185 124 -253 41 -52 168 -144 214 -154 15 -4 37 -13 50 -21 32 -20 167 -33 343 -33 81 0 170 -5 199 -10 38 -7 57 -7 66 1 19 16 20 382 2 397 -9 6 -62 7 -161 1 -264 -17 -371 42 -403 221 -16 89 -20 2457 -4 2720 7 128 6 157 -5 169 -13 13 -381 24 -438 13z"/>
<path d="M19727 6627 c-12 -12 -16 -24 -11 -35 12 -26 20 -1355 14 -2457 -5 -969 -5 -990 14 -1008 11 -10 26 -15 35 -11 9 4 88 7 177 9 88 1 166 5 172 9 8 5 12 46 12 130 0 166 5 170 99 67 39 -44 91 -91 114 -105 71 -42 163 -86 181 -86 9 0 31 -7 48 -16 74 -38 621 -38 696 0 15 7 46 17 69 21 24 4 45 11 48 15 3 5 22 14 42 21 36 11 100 52 171 108 47 38 125 138 157 201 14 30 31 63 36 73 6 10 22 57 37 105 l26 87 6 505 c5 553 -1 772 -23 817 -8 15 -17 44 -21 63 -20 108 -173 320 -268 371 -123 66 -151 79 -166 79 -10 0 -27 6 -38 14 -11 8 -51 19 -90 25 -38 6 -89 15 -114 20 -61 13 -394 13 -450 0 -25 -6 -69 -15 -99 -19 -112 -19 -260 -102 -347 -196 -58 -62 -101 -73 -97 -24 1 14 6 81 12 150 12 139 18 1067 7 1077 -4 4 -102 7 -219 7 -192 1 -214 -1 -230 -17z m1343 -1367 c66 -12 144 -41 153 -57 4 -7 14 -13 21 -13 29 0 133 -134 143 -182 3 -18 13 -46 22 -63 25 -48 24 -1062 -1 -1119 -10 -21 -18 -46 -18 -55 0 -9 -7 -27 -15 -41 -7 -14 -20 -38 -28 -55 -24 -50 -82 -101 -160 -140 l-75 -37 -189 -5 c-383 -11 -514 35 -683 242 l-60 73 0 564 0 563 28 40 c56 83 160 189 207 212 17 8 41 21 55 28 14 8 33 15 43 15 10 0 28 5 40 12 46 25 412 38 517 18z"/>
<path d="M3972 6628 c-52 -4 -110 -15 -129 -23 -20 -8 -45 -15 -56 -15 -38 0 -201 -79 -287 -139 -86 -60 -122 -93 -182 -169 -52 -64 -138 -222 -138 -251 0 -9 -6 -26 -14 -37 -8 -11 -19 -54 -25 -95 -6 -40 -15 -90 -21 -109 -14 -50 -13 -1799 1 -1860 6 -25 17 -74 24 -110 14 -68 42 -157 56 -176 5 -6 23 -37 40 -70 31 -58 94 -142 131 -176 86 -77 144 -125 168 -138 169 -91 268 -126 420 -150 108 -17 940 -12 1030 6 44 9 86 14 94 11 12 -5 57 -74 104 -163 7 -13 17 -24 23 -24 5 0 9 -5 9 -12 0 -6 27 -52 60 -100 33 -49 60 -93 60 -98 0 -31 47 -38 290 -42 l245 -3 3 26 c2 15 -4 34 -14 43 -26 26 -133 172 -234 319 -33 49 -65 94 -70 100 -71 85 -86 122 -52 134 101 37 322 307 322 395 0 8 6 23 14 34 8 11 17 42 21 69 5 28 15 68 24 90 19 49 29 1688 11 1842 -12 109 -44 259 -58 275 -6 7 -13 30 -17 51 -4 20 -11 40 -16 43 -5 3 -16 20 -24 37 -70 150 -217 297 -375 373 -106 51 -137 64 -170 70 -19 4 -47 13 -61 20 -15 7 -76 18 -135 24 -130 12 -940 11 -1072 -2z m1016 -397 c112 -16 202 -63 294 -154 37 -37 68 -73 68 -79 0 -6 6 -19 13 -27 23 -28 57 -125 69 -197 7 -45 13 -330 15 -834 5 -815 -1 -967 -39 -1065 -34 -85 -72 -160 -85 -168 -7 -4 -13 -14 -13 -22 0 -14 -51 -55 -69 -55 -6 0 -18 15 -26 33 -8 17 -24 46 -35 62 -11 17 -27 44 -34 61 -8 17 -22 36 -30 44 -9 7 -16 16 -16 21 0 4 -34 58 -75 119 -41 61 -75 114 -75 118 0 4 -10 19 -23 34 l-22 28 -245 2 c-243 3 -245 3 -248 -18 -2 -12 4 -28 12 -36 26 -26 108 -139 181 -248 39 -58 78 -113 88 -122 9 -10 17 -23 17 -30 0 -6 7 -18 15 -27 38 -39 115 -145 115 -157 0 -24 -28 -29 -117 -22 -48 3 -212 7 -363 8 -284 2 -343 6 -420 35 -110 40 -134 55 -220 140 -70 69 -126 188 -141 301 -13 101 -12 1675 1 1783 16 125 73 244 156 326 63 62 79 72 189 120 59 26 85 28 480 35 436 8 460 7 583 -9z"/>
<path d="M11415 5650 c-22 -4 -80 -13 -130 -20 -49 -7 -99 -18 -110 -25 -11 -7 -36 -16 -56 -19 -21 -4 -42 -13 -49 -21 -7 -8 -20 -15 -30 -15 -9 0 -29 -9 -43 -20 -14 -11 -28 -20 -31 -20 -16 0 -108 -75 -138 -113 -49 -61 -88 -121 -88 -135 0 -7 -9 -29 -20 -49 -11 -21 -20 -48 -20 -60 0 -12 -7 -41 -16 -63 -9 -22 -17 -64 -18 -93 l-1 -52 215 -3 c273 -3 256 -8 262 71 10 125 83 203 231 247 97 30 603 18 650 -15 12 -8 28 -15 36 -15 37 0 171 -115 171 -146 0 -4 7 -15 15 -24 14 -16 22 -46 44 -165 5 -27 12 -126 15 -218 6 -199 4 -201 -84 -148 -8 5 -26 14 -40 20 -14 6 -32 15 -40 19 -35 21 -151 52 -230 63 -47 6 -110 15 -140 19 -73 11 -372 11 -435 0 -27 -5 -86 -14 -130 -20 -44 -6 -92 -17 -107 -25 -14 -8 -34 -15 -44 -15 -23 0 -113 -43 -166 -80 -148 -100 -243 -249 -271 -420 -25 -153 -8 -477 28 -535 7 -11 16 -33 19 -49 4 -16 16 -41 27 -54 10 -14 19 -30 19 -37 0 -35 201 -211 262 -230 12 -4 39 -16 58 -26 19 -11 45 -19 58 -19 13 0 36 -7 53 -15 79 -41 660 -41 738 0 17 8 38 15 47 15 33 0 179 77 220 116 7 6 25 21 41 35 15 13 44 43 62 67 39 47 43 49 67 25 14 -15 16 -31 11 -119 -8 -141 -10 -139 134 -136 63 1 147 -1 187 -6 39 -4 77 -5 84 -1 17 11 11 1833 -7 1897 -7 26 -16 65 -19 87 -6 42 -45 144 -63 167 -6 7 -14 23 -18 36 -8 27 -171 192 -190 192 -7 0 -23 9 -37 19 -13 11 -38 23 -54 27 -16 4 -35 12 -43 18 -21 17 -126 46 -221 62 -47 7 -107 18 -133 24 -54 11 -470 12 -532 0z m475 -1360 c19 -6 67 -15 105 -21 39 -6 80 -17 92 -25 12 -8 30 -14 39 -14 23 0 122 -50 151 -76 22 -21 23 -27 23 -177 0 -175 3 -165 -82 -273 -77 -97 -205 -183 -295 -200 -21 -4 -56 -13 -78 -21 -56 -20 -458 -20 -507 0 -18 8 -49 17 -69 21 -21 3 -42 13 -49 21 -7 8 -18 15 -25 15 -15 0 -95 85 -95 101 0 7 -8 21 -17 32 -29 31 -27 397 3 448 42 76 131 149 181 149 10 0 36 7 58 15 48 17 508 21 565 5z"/>
<path d="M14246 5650 c-16 -5 -63 -14 -104 -21 -42 -6 -85 -17 -96 -24 -12 -7 -35 -16 -53 -20 -17 -3 -37 -13 -44 -21 -6 -8 -16 -14 -22 -14 -32 0 -159 -107 -224 -189 -14 -17 -25 -22 -41 -17 -21 7 -22 12 -22 136 0 73 -4 131 -10 135 -8 5 -359 10 -395 6 -7 -1 -9 -422 -8 -1248 2 -1324 0 -1272 48 -1256 11 4 104 7 207 8 112 0 190 4 195 10 5 6 6 410 3 900 -6 1020 -18 892 100 1018 66 70 130 119 172 132 12 4 29 12 37 19 17 13 132 43 221 58 112 17 343 5 424 -22 70 -24 196 -128 196 -161 0 -7 6 -20 14 -28 8 -9 24 -56 36 -104 20 -87 21 -104 20 -949 -1 -706 1 -863 12 -873 10 -10 28 -11 78 -3 36 5 130 8 210 6 l145 -3 0 950 c0 859 -2 954 -17 995 -9 25 -19 61 -22 80 -4 19 -15 53 -25 75 -10 22 -21 47 -25 55 -6 14 -16 30 -61 96 -36 54 -159 155 -205 169 -14 4 -32 13 -40 20 -27 22 -121 50 -263 79 -85 18 -389 21 -441 6z"/>
<path d="M17890 5649 c-19 -5 -71 -14 -114 -19 -43 -6 -88 -18 -100 -26 -11 -7 -29 -14 -40 -14 -91 0 -376 -224 -376 -295 0 -7 -7 -18 -15 -25 -8 -7 -18 -28 -21 -48 -4 -20 -15 -55 -25 -77 -11 -25 -19 -71 -21 -120 l-3 -80 222 -3 c209 -2 223 -1 232 16 6 11 8 22 5 25 -4 3 1 25 9 49 9 24 18 55 21 69 19 87 147 156 321 171 280 24 544 -7 636 -74 59 -42 129 -128 129 -156 0 -7 8 -24 17 -39 17 -25 40 -454 26 -490 -8 -19 -36 -16 -56 7 -9 11 -24 20 -32 20 -9 0 -33 9 -53 19 -99 51 -140 61 -392 92 -98 13 -423 6 -490 -10 -25 -6 -72 -15 -105 -20 -72 -11 -154 -40 -215 -74 -25 -15 -56 -32 -70 -39 -54 -27 -179 -167 -195 -218 -4 -13 -16 -37 -26 -54 -11 -17 -19 -41 -19 -52 0 -12 -7 -38 -15 -57 -46 -110 -17 -547 41 -618 7 -8 15 -28 18 -46 4 -17 14 -34 22 -37 8 -3 14 -12 14 -21 0 -36 152 -169 250 -218 52 -26 103 -47 113 -47 10 0 34 -7 54 -15 96 -40 643 -40 738 -1 21 9 44 16 53 16 57 0 205 95 302 194 96 98 105 92 97 -63 -3 -65 -1 -124 3 -131 14 -23 386 -21 407 2 11 12 13 24 8 40 -5 13 -11 444 -14 958 -6 865 -7 937 -23 967 -10 18 -18 39 -18 48 0 39 -61 148 -131 235 -32 39 -177 150 -196 150 -4 0 -25 8 -47 19 -152 70 -296 92 -626 96 -146 2 -281 0 -300 -6z m513 -1363 c40 -8 92 -18 117 -21 25 -4 54 -13 65 -19 11 -7 36 -16 56 -20 21 -3 42 -13 49 -21 7 -8 19 -15 27 -15 7 0 27 -10 43 -22 l30 -22 0 -174 0 -175 -39 -52 c-101 -133 -203 -207 -346 -247 -136 -38 -489 -40 -625 -2 -82 23 -182 115 -200 186 -6 24 -15 55 -21 69 -28 71 5 365 45 405 9 8 19 21 23 27 21 32 93 76 152 91 36 9 67 19 70 21 12 12 485 4 554 -9z"/>
<path d="M10010 5634 c-63 -8 -131 -20 -150 -28 -19 -8 -46 -18 -60 -22 -14 -3 -30 -10 -36 -15 -6 -5 -37 -23 -69 -40 -55 -29 -85 -56 -199 -178 -67 -72 -72 -64 -67 113 2 99 0 146 -8 150 -15 10 -391 14 -397 5 -12 -20 -4 -2483 8 -2495 10 -10 33 -10 99 -1 62 8 119 8 200 0 89 -8 117 -8 127 2 11 10 13 172 12 863 0 532 3 853 9 856 5 4 15 23 21 42 28 84 189 264 236 264 6 0 17 7 24 15 7 8 28 17 49 21 20 4 48 13 64 21 44 22 291 37 411 24 148 -16 136 -33 136 198 l0 198 -25 11 c-34 16 -237 13 -385 -4z"/>
<path d="M6392 5615 c-14 -23 -1 -1856 14 -1898 8 -22 14 -49 14 -61 0 -12 9 -39 19 -60 11 -21 23 -51 26 -66 3 -16 13 -34 21 -41 8 -6 14 -17 14 -24 0 -18 32 -57 125 -150 109 -109 230 -170 410 -206 88 -18 501 -14 565 5 30 9 72 21 92 26 53 14 105 42 211 113 25 16 87 76 112 107 11 14 33 33 49 44 42 27 47 11 39 -135 -5 -102 -3 -128 8 -135 8 -5 86 -10 174 -11 88 -2 171 -4 184 -5 17 -2 28 4 35 18 8 14 9 402 6 1254 l-5 1234 -220 0 -220 0 -2 -897 -1 -897 -41 -53 c-78 -99 -158 -173 -213 -197 -13 -6 -30 -14 -38 -19 -36 -21 -129 -50 -180 -56 -161 -19 -454 -8 -494 18 -12 8 -32 17 -46 20 -35 9 -150 126 -150 152 0 7 -7 18 -15 25 -8 7 -17 28 -21 49 -3 20 -12 66 -21 102 -13 56 -14 183 -11 907 1 463 1 842 -2 843 -45 6 -433 1 -438 -6z"/>
</g>
</svg>
