<svg viewBox="0 0 16 16" xmlns="http://www.w3.org/2000/svg" fill="#000000"><path fill-rule="evenodd" clip-rule="evenodd" d="M7.07 0.65a1.25 1.25 0 0 1 1.86 0l.97 1.08a1.25 1.25 0 0 0 1.15.38l1.43-.27a1.25 1.25 0 0 1 1.32.93l.36 1.41a1.25 1.25 0 0 0 .78.87l1.35.52a1.25 1.25 0 0 1 .57 1.77l-.73 1.24a1.25 1.25 0 0 0 0 1.21l.73 1.24a1.25 1.25 0 0 1-.57 1.77l-1.35.52a1.25 1.25 0 0 0-.78.87l-.36 1.41a1.25 1.25 0 0 1-1.32.93l-1.43-.27a1.25 1.25 0 0 0-1.15.38l-.97 1.08a1.25 1.25 0 0 1-1.86 0l-.97-1.08a1.25 1.25 0 0 0-1.15-.38l-1.43.27a1.25 1.25 0 0 1-1.32-.93l-.36-1.41a1.25 1.25 0 0 0-.78-.87l-1.35-.52a1.25 1.25 0 0 1-.57-1.77l.73-1.24a1.25 1.25 0 0 0 0-1.21l-.73-1.24a1.25 1.25 0 0 1 .57-1.77l1.35-.52a1.25 1.25 0 0 0 .78-.87l.36-1.41a1.25 1.25 0 0 1 1.32-.93l1.43.27a1.25 1.25 0 0 0 1.15-.38l.97-1.08ZM8 10.5a2.5 2.5 0 1 0 0-5 2.5 2.5 0 0 0 0 5Z"/></svg>
