<svg viewBox="0 0 16 16" xmlns="http://www.w3.org/2000/svg" fill="#000000"><path fill-rule="evenodd" clip-rule="evenodd" d="M5.33333 1.33333C5.33333 0.596954 5.93029 0 6.66667 0H9.33333C10.0697 0 10.6667 0.596954 10.6667 1.33333V5.33333H14C14.7364 5.33333 15.3333 5.93029 15.3333 6.66667V14.6667C15.3333 15.403 14.7364 16 14 16H2C1.26362 16 0.666667 15.403 0.666667 14.6667V9.33333C0.666667 8.59695 1.26362 8 2 8H5.33333V1.33333ZM5.33333 9.33333H2V14.6667H5.33333V9.33333ZM6.66667 14.6667H9.33333V1.33333H6.66667V14.6667ZM10.6667 6.66667V14.6667H14V6.66667H10.6667Z"/></svg>
