<svg viewBox="0 0 63 65" focusable="false" class="chakra-icon css-e2zq6m" xmlns="http://www.w3.org/2000/svg"><rect x="23.52" y="4.74243" width="5.7078" height="9.51301" transform="rotate(-10 23.52 4.74243)" fill="#4C4C4C"></rect><path d="M19.4938 7.48304C19.302 6.39525 20.0283 5.35794 21.1161 5.16613L31.5419 3.32779C32.6297 3.13598 33.667 3.86232 33.8588 4.95011L34.5026 8.60158L20.1376 11.1345L19.4938 7.48304Z" fill="url(#paint0_linear_time10minv2)"></path><mask id="mask0_time10minv2" maskUnits="userSpaceOnUse" x="4" y="11" width="56" height="51" style="mask-type: alpha;"><path d="M30.8025 12.3461C43.9102 10.0349 56.4096 18.7871 58.7208 31.8947C61.0321 45.0024 52.2799 57.5018 39.1722 59.8131C37.2058 60.1598 35.2317 60.5079 33.2653 60.8546C20.1577 63.1658 7.65819 54.4136 5.34696 41.306C3.03574 28.1984 11.788 15.6989 24.8956 13.3877C26.862 13.0409 28.8361 12.6928 30.8025 12.3461Z" fill="#666666"></path></mask><g mask="url(#mask0_time10minv2)"><path d="M30.8025 12.3461C43.9102 10.0349 56.4096 18.7871 58.7208 31.8947C61.0321 45.0024 52.2799 57.5018 39.1722 59.8131C37.2058 60.1598 35.2317 60.5079 33.2653 60.8546C20.1577 63.1658 7.65819 54.4136 5.34696 41.306C3.03574 28.1984 11.788 15.6989 24.8956 13.3877C26.862 13.0409 28.8361 12.6928 30.8025 12.3461Z" fill="#808080"></path><path d="M30.8025 12.3461C43.9102 10.0349 56.4096 18.7871 58.7208 31.8947C61.0321 45.0024 52.2799 57.5018 39.1722 59.8131C37.2058 60.1598 35.2317 60.5079 33.2653 60.8546C20.1577 63.1658 7.65819 54.4136 5.34696 41.306C3.03574 28.1984 11.788 15.6989 24.8956 13.3877C26.862 13.0409 28.8361 12.6928 30.8025 12.3461Z" fill="url(#paint1_linear_time10minv2)" fill-opacity="0.4"></path><circle cx="29.0805" cy="37.1211" r="24.0996" transform="rotate(-10 29.0805 37.1211)" fill="#808080"></circle><circle cx="29.0805" cy="37.1211" r="24.0996" transform="rotate(-10 29.0805 37.1211)" fill="url(#paint2_linear_time10minv2)" fill-opacity="0.4"></circle><rect x="-3.26074" y="18.3525" width="44.8982" height="14.1526" transform="rotate(-10 -3.26074 18.3525)" fill="url(#paint3_linear_time10minv2)" fill-opacity="0.5"></rect></g><mask id="mask1_time10minv2" maskUnits="userSpaceOnUse" x="10" y="11" width="50" height="50" style="mask-type: alpha;"><circle cx="34.9872" cy="36.0796" r="24.0996" transform="rotate(-10 34.9872 36.0796)" fill="#CCCCCC"></circle></mask><g mask="url(#mask1_time10minv2)"><circle cx="34.9872" cy="36.0796" r="24.0996" transform="rotate(-10 34.9872 36.0796)" fill="#DCDCDC"></circle><circle cx="34.9872" cy="36.0796" r="24.0996" transform="rotate(-10 34.9872 36.0796)" fill="url(#paint4_linear_time10minv2)" fill-opacity="0.4"></circle><circle cx="34.7868" cy="36.2208" r="17.7551" transform="rotate(-10 34.7868 36.2208)" fill="#F8F8F8"></circle><path d="M32.3455 21.0896C34.9767 20.6256 37.6837 20.8625 40.1944 21.7763C42.7051 22.6901 44.931 24.2487 46.6484 26.2954L34.9886 36.0792L32.3455 21.0896Z" fill="url(#paint5_linear_time10minv2)"></path></g><defs><linearGradient id="paint0_linear_time10minv2" x1="34.3046" y1="7.47863" x2="19.9982" y2="9.42608" gradientUnits="userSpaceOnUse"><stop stop-color="#E9E9E9"></stop><stop offset="1" stop-color="#838383"></stop></linearGradient><linearGradient id="paint1_linear_time10minv2" x1="27.8491" y1="12.8669" x2="36.2188" y2="60.3338" gradientUnits="userSpaceOnUse"><stop stop-opacity="0"></stop><stop offset="0.789165"></stop></linearGradient><linearGradient id="paint2_linear_time10minv2" x1="29.0804" y1="13.0215" x2="29.0804" y2="61.2208" gradientUnits="userSpaceOnUse"><stop stop-opacity="0"></stop><stop offset="0.789165"></stop></linearGradient><linearGradient id="paint3_linear_time10minv2" x1="-9.04115" y1="24.6038" x2="18.5038" y2="17.8964" gradientUnits="userSpaceOnUse"><stop stop-color="white"></stop><stop offset="1" stop-color="white" stop-opacity="0"></stop></linearGradient><linearGradient id="paint4_linear_time10minv2" x1="42.2369" y1="17.0199" x2="17.7283" y2="48.9897" gradientUnits="userSpaceOnUse"><stop stop-opacity="0"></stop><stop offset="1"></stop></linearGradient><linearGradient id="paint5_linear_time10minv2" x1="34.5758" y1="24.4459" x2="50.6047" y2="37.7835" gradientUnits="userSpaceOnUse"><stop stop-color="#9D62FF"></stop><stop offset="1" stop-color="#FFBDEC"></stop></linearGradient></defs></svg>