<svg viewBox="0 0 24 25" xmlns="http://www.w3.org/2000/svg"><path fill-rule="evenodd" clip-rule="evenodd" d="M14.4817 19.6977L11.999 21.1161L9.52933 19.6752L9.54232 16.816L11.4342 15.7351L11.4622 9.58023L14.9175 8.47371L14.9161 8.47119L14.9316 5.04609L12.6755 5.76237L11.4778 6.12943L11.481 5.42512L11.4828 5.04461L11.8454 4.92947L14.9366 3.94805L14.9447 2.17121C14.9483 1.37199 14.189 0.789447 13.418 0.999965L9.98967 1.93603C9.53685 2.05967 9.22203 2.47004 9.2199 2.93943L9.17475 12.8808L7.00035 14.123C6.35198 14.4934 5.95048 15.1816 5.94709 15.9283L5.92619 20.5302C5.9228 21.2769 6.31803 21.9687 6.96301 22.345L10.9379 24.664C11.5828 25.0403 12.3796 25.0439 13.0279 24.6735L17.0237 22.3907C17.672 22.0202 18.0735 21.3321 18.0769 20.5853L18.0978 15.9835C18.1012 15.2368 17.706 14.545 17.061 14.1687L14.8959 12.9056L14.911 9.59355L12.5037 10.3641L12.4796 15.6628L14.4947 16.8385L14.4817 19.6977Z" fill="#EAB308"/></svg>
