<svg viewBox="0 0 16 16" xmlns="http://www.w3.org/2000/svg" fill="#000000"><path fill-rule="evenodd" clip-rule="evenodd" d="M8 0C8.36819 0 8.66667 0.298477 8.66667 0.666667V2C8.66667 2.36819 8.36819 2.66667 8 2.66667C7.63181 2.66667 7.33333 2.36819 7.33333 2V0.666667C7.33333 0.298477 7.63181 0 8 0ZM3.28596 3.28596C3.54631 3.02561 3.9684 3.02561 4.22876 3.28596L5.17157 4.22876C5.43192 4.48912 5.43192 4.91121 5.17157 5.17157C4.91121 5.43192 4.48912 5.43192 4.22876 5.17157L3.28596 4.22876C3.02561 3.9684 3.02561 3.54631 3.28596 3.28596ZM12.714 3.28596C12.9744 3.54631 12.9744 3.9684 12.714 4.22876L11.7712 5.17157C11.5109 5.43192 11.0888 5.43192 10.8284 5.17157C10.5681 4.91121 10.5681 4.48912 10.8284 4.22876L11.7712 3.28596C12.0316 3.02561 12.4537 3.02561 12.714 3.28596ZM4 8C4 5.79086 5.79086 4 8 4C10.2091 4 12 5.79086 12 8C12 9.0902 11.5782 10.0786 10.8905 10.8166L11.5856 13.0039C11.7244 13.4409 11.3958 13.8867 10.938 13.895L8.72667 13.9349L7.27333 13.9349L5.062 13.895C4.60418 13.8867 4.27558 13.4409 4.41436 13.0039L5.10946 10.8166C4.42183 10.0786 4 9.0902 4 8ZM8 5.33333C6.52724 5.33333 5.33333 6.52724 5.33333 8C5.33333 8.82782 5.71607 9.56584 6.31236 10.0537C6.47604 10.1876 6.5558 10.3944 6.52275 10.5999L6.00423 12.5624L7.33333 12.6016H8.66667L9.99577 12.5624L9.47725 10.5999C9.4442 10.3944 9.52396 10.1876 9.68764 10.0537C10.2839 9.56584 10.6667 8.82782 10.6667 8C10.6667 6.52724 9.47276 5.33333 8 5.33333ZM0 8C0 7.63181 0.298477 7.33333 0.666667 7.33333H2C2.36819 7.33333 2.66667 7.63181 2.66667 8C2.66667 8.36819 2.36819 8.66667 2 8.66667H0.666667C0.298477 8.66667 0 8.36819 0 8ZM13.3333 8C13.3333 7.63181 13.6318 7.33333 14 7.33333H15.3333C15.7015 7.33333 16 7.63181 16 8C16 8.36819 15.7015 8.66667 15.3333 8.66667H14C13.6318 8.66667 13.3333 8.36819 13.3333 8ZM6.66667 14.6667C6.66667 14.2985 6.96514 14 7.33333 14H8.66667C9.03486 14 9.33333 14.2985 9.33333 14.6667V15.3333C9.33333 15.7015 9.03486 16 8.66667 16H7.33333C6.96514 16 6.66667 15.7015 6.66667 15.3333V14.6667Z"/></svg>
