<svg viewBox="0 0 16 16" xmlns="http://www.w3.org/2000/svg" fill="#000000"><path fill-rule="evenodd" clip-rule="evenodd" d="M8.86768 1.19904C8.36836 0.771054 7.63156 0.771055 7.13224 1.19904L1.13224 6.3419C0.83671 6.59521 0.666626 6.96501 0.666626 7.35424V14.6667C0.666626 15.403 1.26358 16 1.99996 16L6.33333 16H9.66667L14 16C14.7331 16 15.3333 15.4087 15.3333 14.6691V7.35298C15.3333 6.96239 15.1622 6.59432 14.8677 6.3419L8.86768 1.19904ZM10.6667 14.6667H14V7.35424L7.99996 2.21139L1.99996 7.35424V14.6667H5.33333V10.3333C5.33333 9.78105 5.78105 9.33333 6.33333 9.33333H9.66667C10.219 9.33333 10.6667 9.78105 10.6667 10.3333V14.6667ZM6.66667 14.6667H9.33333V10.6667H6.66667V14.6667Z"/></svg>
