<svg viewBox="0 0 64 67" focusable="false" class="chakra-icon css-ubhr57" xmlns="http://www.w3.org/2000/svg"><rect x="24.0664" y="4.85254" width="5.84034" height="9.7339" transform="rotate(-10 24.0664 4.85254)" fill="#4C4C4C"></rect><path d="M19.9462 7.65695C19.7499 6.5439 20.4931 5.4825 21.6062 5.28624L32.274 3.40521C33.3871 3.20895 34.4485 3.95215 34.6447 5.0652L35.3036 8.80146L20.605 11.3932L19.9462 7.65695Z" fill="url(#paint0_linear_time60minv2)"></path><mask id="mask0_time60minv2" maskUnits="userSpaceOnUse" x="5" y="12" width="56" height="51" style="mask-type: alpha;"><path d="M31.5175 12.6326C44.9294 10.268 57.7192 19.2233 60.084 32.6352C62.4489 46.0471 53.4934 58.8367 40.0815 61.2017C38.0696 61.5565 36.049 61.9128 34.0371 62.2675C20.6251 64.6324 7.83539 55.677 5.4705 42.265C3.10563 28.853 12.0611 16.0634 25.473 13.6984C27.4849 13.3437 29.5056 12.9874 31.5175 12.6326Z" fill="#666666"></path></mask><g mask="url(#mask0_time60minv2)"><path d="M31.5175 12.6326C44.9294 10.268 57.7192 19.2233 60.084 32.6352C62.4489 46.0471 53.4934 58.8367 40.0815 61.2017C38.0696 61.5565 36.049 61.9128 34.0371 62.2675C20.6251 64.6324 7.83539 55.677 5.4705 42.265C3.10563 28.853 12.0611 16.0634 25.473 13.6984C27.4849 13.3437 29.5056 12.9874 31.5175 12.6326Z" fill="#808080"></path><path d="M31.5175 12.6326C44.9294 10.268 57.7192 19.2233 60.084 32.6352C62.4489 46.0471 53.4934 58.8367 40.0815 61.2017C38.0696 61.5565 36.049 61.9128 34.0371 62.2675C20.6251 64.6324 7.83539 55.677 5.4705 42.265C3.10563 28.853 12.0611 16.0634 25.473 13.6984C27.4849 13.3437 29.5056 12.9874 31.5175 12.6326Z" fill="url(#paint1_linear_time60minv2)" fill-opacity="0.4"></path><circle cx="29.7551" cy="37.983" r="24.6592" transform="rotate(-10 29.7551 37.983)" fill="#808080"></circle><circle cx="29.7551" cy="37.983" r="24.6592" transform="rotate(-10 29.7551 37.983)" fill="url(#paint2_linear_time60minv2)" fill-opacity="0.4"></circle><rect x="-3.33691" y="18.7783" width="45.9407" height="14.4813" transform="rotate(-10 -3.33691 18.7783)" fill="url(#paint3_linear_time60minv2)" fill-opacity="0.5"></rect></g><mask id="mask1_time60minv2" maskUnits="userSpaceOnUse" x="11" y="12" width="50" height="50" style="mask-type: alpha;"><circle cx="35.8" cy="36.9176" r="24.6592" transform="rotate(-10 35.8 36.9176)" fill="#CCCCCC"></circle></mask><g mask="url(#mask1_time60minv2)"><circle cx="35.8" cy="36.9176" r="24.6592" transform="rotate(-10 35.8 36.9176)" fill="#DCDCDC"></circle><circle cx="35.8" cy="36.9176" r="24.6592" transform="rotate(-10 35.8 36.9176)" fill="url(#paint4_linear_time60minv2)" fill-opacity="0.4"></circle><circle cx="35.5949" cy="37.0618" r="18.1674" transform="rotate(-10 35.5949 37.0618)" fill="#F8F8F8"></circle><path d="M33.0974 21.5797C37.1038 20.8733 41.2277 21.7626 44.5869 24.0574C47.9462 26.3522 50.2741 29.8703 51.0729 33.8594C51.8717 37.8484 51.0779 41.9917 48.8613 45.4031C46.6447 48.8144 43.1813 51.223 39.2117 52.1137C35.2422 53.0045 31.0817 52.3066 27.6201 50.1694C24.1584 48.0322 21.6705 44.6253 20.6883 40.6774C19.7061 36.7295 20.3077 32.554 22.3644 29.0439C24.4211 25.5338 27.7696 22.9678 31.6937 21.8947L35.8018 36.9174L33.0974 21.5797Z" fill="url(#paint5_linear_time60minv2)"></path></g><defs><linearGradient id="paint0_linear_time60minv2" x1="35.1009" y1="7.65243" x2="20.4623" y2="9.64511" gradientUnits="userSpaceOnUse"><stop stop-color="#E9E9E9"></stop><stop offset="1" stop-color="#838383"></stop></linearGradient><linearGradient id="paint1_linear_time60minv2" x1="28.4953" y1="13.1655" x2="37.0593" y2="61.7346" gradientUnits="userSpaceOnUse"><stop stop-opacity="0"></stop><stop offset="0.789165"></stop></linearGradient><linearGradient id="paint2_linear_time60minv2" x1="29.7551" y1="13.3238" x2="29.7551" y2="62.6423" gradientUnits="userSpaceOnUse"><stop stop-opacity="0"></stop><stop offset="0.789165"></stop></linearGradient><linearGradient id="paint3_linear_time60minv2" x1="-9.25154" y1="25.1747" x2="18.933" y2="18.3116" gradientUnits="userSpaceOnUse"><stop stop-color="white"></stop><stop offset="1" stop-color="white" stop-opacity="0"></stop></linearGradient><linearGradient id="paint4_linear_time60minv2" x1="43.2181" y1="17.4153" x2="18.1403" y2="50.1274" gradientUnits="userSpaceOnUse"><stop stop-opacity="0"></stop><stop offset="1"></stop></linearGradient><linearGradient id="paint5_linear_time60minv2" x1="35.3804" y1="25.014" x2="52.5879" y2="47.4863" gradientUnits="userSpaceOnUse"><stop stop-color="#9D62FF"></stop><stop offset="1" stop-color="#FFBDEC"></stop></linearGradient></defs></svg>