<svg viewBox="0 0 65 67" focusable="false" class="chakra-icon css-1alvpry" xmlns="http://www.w3.org/2000/svg"><rect x="24.0664" y="4.85254" width="5.84034" height="9.7339" transform="rotate(-10 24.0664 4.85254)" fill="#4C4C4C"></rect><path d="M19.9462 7.65695C19.7499 6.5439 20.4931 5.4825 21.6062 5.28624L32.274 3.40521C33.3871 3.20895 34.4485 3.95215 34.6447 5.0652L35.3036 8.80146L20.605 11.3932L19.9462 7.65695Z" fill="url(#paint0_linear_time30minv2)"></path><mask id="mask0_time30minv2" maskUnits="userSpaceOnUse" x="5" y="12" width="56" height="51" style="mask-type: alpha;"><path d="M31.5175 12.6326C44.9294 10.268 57.7192 19.2233 60.084 32.6352C62.4489 46.0471 53.4934 58.8367 40.0815 61.2017C38.0696 61.5565 36.049 61.9128 34.0371 62.2675C20.6251 64.6324 7.83539 55.677 5.4705 42.265C3.10563 28.853 12.0611 16.0634 25.473 13.6984C27.4849 13.3437 29.5056 12.9874 31.5175 12.6326Z" fill="#666666"></path></mask><g mask="url(#mask0_time30minv2)"><path d="M31.5175 12.6326C44.9294 10.268 57.7192 19.2233 60.084 32.6352C62.4489 46.0471 53.4934 58.8367 40.0815 61.2017C38.0696 61.5565 36.049 61.9128 34.0371 62.2675C20.6251 64.6324 7.83539 55.677 5.4705 42.265C3.10563 28.853 12.0611 16.0634 25.473 13.6984C27.4849 13.3437 29.5056 12.9874 31.5175 12.6326Z" fill="#808080"></path><path d="M31.5175 12.6326C44.9294 10.268 57.7192 19.2233 60.084 32.6352C62.4489 46.0471 53.4934 58.8367 40.0815 61.2017C38.0696 61.5565 36.049 61.9128 34.0371 62.2675C20.6251 64.6324 7.83539 55.677 5.4705 42.265C3.10563 28.853 12.0611 16.0634 25.473 13.6984C27.4849 13.3437 29.5056 12.9874 31.5175 12.6326Z" fill="url(#paint1_linear_time30minv2)" fill-opacity="0.4"></path><circle cx="29.7551" cy="37.983" r="24.6592" transform="rotate(-10 29.7551 37.983)" fill="#808080"></circle><circle cx="29.7551" cy="37.983" r="24.6592" transform="rotate(-10 29.7551 37.983)" fill="url(#paint2_linear_time30minv2)" fill-opacity="0.4"></circle><rect x="-3.33691" y="18.7783" width="45.9407" height="14.4813" transform="rotate(-10 -3.33691 18.7783)" fill="url(#paint3_linear_time30minv2)" fill-opacity="0.5"></rect></g><mask id="mask1_time30minv2" maskUnits="userSpaceOnUse" x="11" y="12" width="50" height="50" style="mask-type: alpha;"><circle cx="35.799" cy="36.9176" r="24.6592" transform="rotate(-10 35.799 36.9176)" fill="#CCCCCC"></circle></mask><g mask="url(#mask1_time30minv2)"><circle cx="35.799" cy="36.9176" r="24.6592" transform="rotate(-10 35.799 36.9176)" fill="#DCDCDC"></circle><circle cx="35.799" cy="36.9176" r="24.6592" transform="rotate(-10 35.799 36.9176)" fill="url(#paint4_linear_time30minv2)" fill-opacity="0.4"></circle><circle cx="35.594" cy="37.0618" r="18.1674" transform="rotate(-10 35.594 37.0618)" fill="#F8F8F8"></circle><path d="M33.0964 21.5797C37.1642 20.8625 41.3503 21.7905 44.7339 24.1597C48.1174 26.5289 50.4212 30.1451 51.1385 34.2129C51.8558 38.2807 50.9277 42.4669 48.5585 45.8504C46.1894 49.2339 42.5731 51.5378 38.5053 52.255L35.8009 36.9174L33.0964 21.5797Z" fill="url(#paint5_linear_time30minv2)"></path></g><defs><linearGradient id="paint0_linear_time30minv2" x1="35.1009" y1="7.65243" x2="20.4623" y2="9.64511" gradientUnits="userSpaceOnUse"><stop stop-color="#E9E9E9"></stop><stop offset="1" stop-color="#838383"></stop></linearGradient><linearGradient id="paint1_linear_time30minv2" x1="28.4953" y1="13.1655" x2="37.0593" y2="61.7346" gradientUnits="userSpaceOnUse"><stop stop-opacity="0"></stop><stop offset="0.789165"></stop></linearGradient><linearGradient id="paint2_linear_time30minv2" x1="29.7551" y1="13.3238" x2="29.7551" y2="62.6423" gradientUnits="userSpaceOnUse"><stop stop-opacity="0"></stop><stop offset="0.789165"></stop></linearGradient><linearGradient id="paint3_linear_time30minv2" x1="-9.25154" y1="25.1747" x2="18.933" y2="18.3116" gradientUnits="userSpaceOnUse"><stop stop-color="white"></stop><stop offset="1" stop-color="white" stop-opacity="0"></stop></linearGradient><linearGradient id="paint4_linear_time30minv2" x1="43.2171" y1="17.4153" x2="18.1394" y2="50.1274" gradientUnits="userSpaceOnUse"><stop stop-opacity="0"></stop><stop offset="1"></stop></linearGradient><linearGradient id="paint5_linear_time30minv2" x1="35.3784" y1="25.014" x2="51.7796" y2="38.6613" gradientUnits="userSpaceOnUse"><stop stop-color="#9D62FF"></stop><stop offset="1" stop-color="#FFBDEC"></stop></linearGradient></defs></svg>